# xmcd
#
# Track frame offsets:
#	150
#	12997
#	25042
#	37310
#	49387
#	59925
#	71927
#	82127
#	93440
#	109157
#	126572
#	139812
#	150465
#	162525
#	178665
#	193370
#	207435
#	218875
#	233637
#	243057
#
# Disc length: 3394
#
# Revision: 2
# Processed by: cddbd v1.5.1PL0 Copyright (c) Steve Scherf et al.
# Submitted via: EasyCDDAExtractor 6.5.7.1
# Normalized: r1:DSETVAR1
#
DISCID=390d4014
DTITLE=Various Artist - The First Ladies Of Country
DYEAR=1996
DGENRE=Country
TTITLE0=Patsy Cline - I Fall To Pieces
TTITLE1=Kitty Wells - Heartbreak, USA
TTITLE2=Tammy Waynette - Stand By Your Man
TTITLE3=Loretta Lynn - One's On The Way
TTITLE4=Connie Smith - Once A Day
TTITLE5=Skeeter Davis - The End Of The World
TTITLE6=Jean Shepard - Slippin' Away
TTITLE7=Wanda Jackson - In The Middle Of A Heartache
TTITLE8=Dolly Parton - Heartbreaker
TTITLE9=Emmylou Harris - Together Again
TTITLE10=Lynn Anderson - Rose Garden
TTITLE11=Barbara Mandrell - Sleeping Single In A Double Bed
TTITLE12=Crystal Gayle - Don't It Make My Brown Eyes Blue
TTITLE13=Bille Jo Spears - Blanket On The Ground
TTITLE14=Melba Montgomery - No Charge
TTITLE15=Tanya Tucker - What's Your Mama's Name?
TTITLE16=Janie Frickie - Down To My Last Broken Heart
TTITLE17=Jeannie C Riley - Harper Valley PTA
TTITLE18=Dottie West - Country Sunshine
TTITLE19=Donna Fargo - The Happiest Girl In The Whole USA
EXTD=
EXTT0=
EXTT1=
EXTT2=
EXTT3=
EXTT4=
EXTT5=
EXTT6=
EXTT7=
EXTT8=
EXTT9=
EXTT10=
EXTT11=
EXTT12=
EXTT13=
EXTT14=
EXTT15=
EXTT16=
EXTT17=
EXTT18=
EXTT19=
PLAYORDER=
